<?xml version="1.0" encoding="iso-8859-1"?>
<!-- Generator: Adobe Illustrator 19.1.0, SVG Export Plug-In . SVG Version: 6.00 Build 0)  -->
<svg version="1.1" id="Capa_1" xmlns="http://www.w3.org/2000/svg" xmlns:xlink="http://www.w3.org/1999/xlink" x="0px" y="0px"
	 viewBox="0 0 499.743 499.743" style="enable-background:new 0 0 499.743 499.743;" xml:space="preserve">
<g>
	<g>
		<path  style="fill: #FE6534" d="M409.304,114.369l-136.746,34.808l49.726-131.773c2.486-4.973,0-9.945-2.486-12.431C317.312,0,312.339,0,307.367,0
			L125.868,39.781c-4.973,0-9.945,4.973-9.945,9.945L76.142,298.354c0,4.973,0,7.459,2.486,9.945s7.459,4.973,9.945,2.486
			l124.314-24.863l-52.212,198.903c-2.486,4.973,2.486,12.431,7.459,14.918c2.486,0,2.486,0,4.973,0
			c4.973,0,7.459-2.486,9.945-4.973l238.683-360.511c2.486-4.973,2.486-9.945,0-14.918
			C419.249,116.855,414.277,114.369,409.304,114.369z M207.915,417.695l37.294-144.204c0-4.973,0-7.459-2.486-12.431
			c-2.486-2.486-4.973-4.973-9.945-4.973h-2.486l-126.8,24.863l34.808-223.765l151.663-32.322l-49.726,131.773
			c-2.486,4.973,0,9.945,2.486,12.431c2.486,2.486,7.459,4.973,12.431,4.973l129.287-32.322L207.915,417.695z"/>
		<path  style="fill: #FE6534" d="M165.649,193.93c-7.459,0-12.431,2.486-14.918,9.945l-7.459,42.267c0,7.459,2.486,12.431,9.945,14.918h2.486
			c4.973,0,12.431-4.973,12.431-9.945l7.459-42.267C175.594,201.389,173.107,193.93,165.649,193.93z"/>
		<path  style="fill: #FE6534" d="M155.703,174.04c0,7.459,2.486,12.431,9.945,14.918h2.486c4.973,0,12.431-4.973,12.431-9.945l14.918-91.992l-24.863-4.973
			L155.703,174.04z"/>
	</g>
</g>
<g>
</g>
<g>
</g>
<g>
</g>
<g>
</g>
<g>
</g>
<g>
</g>
<g>
</g>
<g>
</g>
<g>
</g>
<g>
</g>
<g>
</g>
<g>
</g>
<g>
</g>
<g>
</g>
<g>
</g>
</svg>
