<?xml version="1.0" encoding="utf-8"?>
<!-- Generator: Adobe Illustrator 16.0.0, SVG Export Plug-In . SVG Version: 6.00 Build 0)  -->
<!DOCTYPE svg PUBLIC "-//W3C//DTD SVG 1.1//EN" "http://www.w3.org/Graphics/SVG/1.1/DTD/svg11.dtd">
<svg version="1.1" id="Capa_1" xmlns="http://www.w3.org/2000/svg" xmlns:xlink="http://www.w3.org/1999/xlink" x="0px" y="0px"
	 width="361px" height="458.898px" viewBox="0 0 361 458.898" enable-background="new 0 0 361 458.898" xml:space="preserve">
<g>
	<path fill="none" stroke="#0070E3" stroke-width="37" stroke-linecap="round" stroke-miterlimit="10" d="M65.121,131.899
		c0,0,77.336-6.461,94.67-60.294"/>
	<path fill="none" stroke="#0070E3" stroke-width="32" stroke-linecap="round" stroke-miterlimit="10" d="M89.096,53.498
		c4.855-0.839,43.289-9.228,50.715-37.498"/>
	<path fill="#0070E3" stroke="#EEEEEE" stroke-width="5" stroke-miterlimit="10" d="M217.721,104.388
		c-1.545,0.791-2.668,1.994-3.063,3.392c0.879,5.599,1.344,11.311,1.344,17.119c0,69.587-64.918,126-145,126
		c-20.5,0-40-3.713-57.678-10.383c-3.537,0.825-6.412,2.823-7.846,5.401C3.533,256.451,2.5,267.303,2.5,278.398
		c0,98.307,79.693,178,178,178c98.307,0,178-79.693,178-178C358.5,192.859,298.158,123.087,217.721,104.388z"/>
	<path fill="none" stroke="#0070E3" stroke-width="37" stroke-linecap="round" stroke-linejoin="round" stroke-miterlimit="10" d="
		M33.84,202.697c0,0,52.127,14.643,100.518-23.723"/>
</g>
</svg>
