<?xml version="1.0" encoding="utf-8"?>
<!-- Generator: Adobe Illustrator 16.0.0, SVG Export Plug-In . SVG Version: 6.00 Build 0)  -->
<!DOCTYPE svg PUBLIC "-//W3C//DTD SVG 1.1//EN" "http://www.w3.org/Graphics/SVG/1.1/DTD/svg11.dtd">
<svg version="1.1" id="Capa_1" xmlns="http://www.w3.org/2000/svg" xmlns:xlink="http://www.w3.org/1999/xlink" x="0px" y="0px"
	 width="361px" height="458.898px" viewBox="0 0 361 458.898" enable-background="new 0 0 361 458.898" xml:space="preserve">
<g>
	<path fill="none" stroke="#EEEEEE" stroke-width="37" stroke-linecap="round" stroke-miterlimit="10" d="M66.018,131.573
		c0,0,77.336-6.461,94.67-60.294"/>
	<path fill="none" stroke="#EEEEEE" stroke-width="32" stroke-linecap="round" stroke-miterlimit="10" d="M89.992,53.172
		c4.855-0.839,43.289-9.229,50.715-37.498"/>
	<path fill="#EEEEEE" stroke="#EEEEEE" stroke-width="5" stroke-miterlimit="10" d="M218.617,104.063
		c-1.545,0.79-2.668,1.993-3.064,3.392c0.879,5.599,1.344,11.311,1.344,17.119c0,69.587-64.917,125.999-145,125.999
		c-20.5,0-40-3.714-57.678-10.384c-3.537,0.826-6.412,2.824-7.846,5.402c-1.943,10.533-2.977,21.385-2.977,32.48
		c0,98.307,79.693,178,178,178c98.307,0,178-79.693,178-178C359.396,192.533,299.055,122.761,218.617,104.063z"/>
	<path fill="none" stroke="#EEEEEE" stroke-width="37" stroke-linecap="round" stroke-linejoin="round" stroke-miterlimit="10" d="
		M34.736,202.371c0,0,52.127,14.643,100.518-23.723"/>
</g>
</svg>
