<?xml version="1.0" encoding="utf-8"?>
<!-- Generator: Adobe Illustrator 16.0.0, SVG Export Plug-In . SVG Version: 6.00 Build 0)  -->
<!DOCTYPE svg PUBLIC "-//W3C//DTD SVG 1.1//EN" "http://www.w3.org/Graphics/SVG/1.1/DTD/svg11.dtd">
<svg version="1.1" id="Capa_1" xmlns="http://www.w3.org/2000/svg" xmlns:xlink="http://www.w3.org/1999/xlink" x="0px" y="0px"
	 width="556px" height="504px" viewBox="0 0 556 504" enable-background="new 0 0 556 504" xml:space="preserve">
<circle display="none" fill="#FFFFFF" stroke="#000000" stroke-miterlimit="10" cx="-1479.5" cy="243.5" r="175.5"/>
<g>
</g>
<g>
</g>
<g>
</g>
<g>
</g>
<g>
</g>
<g>
</g>
<g>
</g>
<path fill="none" stroke="#0070E3" stroke-width="37" stroke-linecap="round" stroke-miterlimit="10" d="M-541.86,207.405
	c0,0,77.336-6.461,94.67-60.294"/>
<path fill="none" stroke="#0070E3" stroke-width="32" stroke-linecap="round" stroke-miterlimit="10" d="M-517.886,129.004
	c4.855-0.839,43.289-9.228,50.715-37.498"/>
<path fill="#0070E3" d="M-389.261,179.894c-1.545,0.791-2.668,1.994-3.064,3.392c0.879,5.599,1.344,11.311,1.344,17.119
	c0,69.587-64.918,125.999-145,125.999c-20.5,0-40-3.713-57.678-10.383c-3.537,0.826-6.412,2.824-7.846,5.402
	c-1.943,10.533-2.977,21.385-2.977,32.48c0,98.307,79.693,178,178,178s178-79.693,178-178
	C-248.481,268.365-308.823,198.593-389.261,179.894z M-487.598,341.76h-3.278c-3.701,0-6.399,1.092-8.094,3.277
	c-1.115,1.428-1.672,4.861-1.672,10.301v58.6c0,4.594,0.289,7.627,0.869,9.098c0.445,1.115,1.382,2.074,2.81,2.877
	c1.917,1.07,3.946,1.605,6.087,1.605h3.278v2.475h-38.866v-2.475h3.211c3.746,0,6.467-1.092,8.162-3.277
	c1.07-1.428,1.605-4.861,1.605-10.303v-58.6c0-4.592-0.291-7.625-0.87-9.098c-0.446-1.113-1.36-2.072-2.743-2.875
	c-1.963-1.07-4.014-1.605-6.154-1.605h-3.211v-2.477h38.866V341.76z M-327.156,421.563c-5.33,4.973-12.187,7.459-20.57,7.459
	c-2.632,0-5.106-0.201-7.425-0.602c-1.383-0.225-4.248-1.037-8.597-2.441c-4.348-1.406-7.103-2.107-8.261-2.107
	c-1.115,0-1.997,0.334-2.643,1.002c-0.647,0.67-1.127,2.053-1.438,4.148h-2.476v-31.105h2.476c1.159,6.512,2.72,11.383,4.683,14.615
	c1.962,3.234,4.961,5.92,8.997,8.061s8.462,3.211,13.278,3.211c5.574,0,9.979-1.471,13.212-4.414s4.851-6.422,4.851-10.436
	c0-2.229-0.614-4.482-1.84-6.756c-1.228-2.275-3.134-4.393-5.72-6.355c-1.739-1.338-6.489-4.182-14.249-8.529
	s-13.278-7.814-16.556-10.402c-3.278-2.586-5.765-5.439-7.459-8.563c-1.695-3.121-2.542-6.555-2.542-10.301
	c0-6.512,2.497-12.119,7.492-16.824c4.994-4.705,11.35-7.057,19.064-7.057c4.816,0,9.923,1.182,15.319,3.545
	c2.497,1.115,4.259,1.672,5.284,1.672c1.16,0,2.107-0.344,2.844-1.037c0.735-0.689,1.326-2.084,1.772-4.18h2.476v31.373h-2.476
	c-0.803-6.021-2.241-10.814-4.314-14.383c-2.074-3.566-5.028-6.398-8.864-8.496c-3.836-2.096-7.805-3.143-11.906-3.143
	c-4.639,0-8.475,1.416-11.506,4.246c-3.033,2.834-4.549,6.055-4.549,9.668c0,2.766,0.958,5.283,2.876,7.559
	c2.765,3.344,9.343,7.805,19.733,13.379c8.473,4.549,14.26,8.039,17.359,10.469c3.1,2.432,5.485,5.297,7.158,8.596
	c1.672,3.301,3.508,6.756,3.508,10.369C-318.163,410.67-321.828,416.59-327.156,421.563z M-412.773,425.268
	c-6.065,3.746-13.268,5.619-21.607,5.619c-15.029,0-26.668-5.574-34.918-16.725c-6.154-8.295-9.232-18.061-9.232-29.299
	c0-9.053,2.029-17.369,6.088-24.951c4.058-7.582,9.643-13.457,16.757-17.627c7.112-4.17,14.884-6.254,23.313-6.254
	c6.555,0,13.021,1.605,19.398,4.816c1.873,0.98,3.211,1.471,4.014,1.471c1.205,0,2.252-0.424,3.145-1.271
	c1.159-1.203,1.984-2.875,2.475-5.016H-401l2.074,30.838H-401c-2.766-9.232-6.713-15.877-11.84-19.936
	c-5.129-4.057-11.283-6.086-18.463-6.086c-6.021,0-11.463,1.527-16.322,4.582c-4.861,3.055-8.687,7.926-11.473,14.615
	c-2.788,6.689-4.182,15.008-4.182,24.951c0,8.207,1.315,15.32,3.947,21.34c2.631,6.021,6.589,10.637,11.874,13.848
	c5.284,3.211,11.315,4.816,18.095,4.816c5.887,0,11.082-1.26,15.586-3.779s9.455-7.525,14.852-15.018l2.073,1.338
	C-401.401,415.613-406.709,421.521-412.773,425.268z"/>
<path fill="none" stroke="#0070E3" stroke-width="37" stroke-linecap="round" stroke-linejoin="round" stroke-miterlimit="10" d="
	M-573.142,278.203c0,0,52.127,14.643,100.518-23.723"/>
<rect x="-1486" y="-636" fill="none" width="134" height="306"/>
<path fill="#2572EF" d="M-2240.318,230.9"/>
<rect x="-2921" y="468.898" fill="none" stroke="#0070E3" stroke-miterlimit="10" width="11.077" height="10.256"/>
<rect x="-2921" y="1389.409" fill="none" stroke="#0070E3" stroke-miterlimit="10" width="2077.611" height="489.744"/>
<rect x="-822.389" y="1389.409" fill="none" stroke="#0070E3" stroke-miterlimit="10" width="773.961" height="489.744"/>
<g>
</g>
<g>
</g>
<g>
</g>
<g>
</g>
<g>
</g>
<g>
</g>
<g>
</g>
<g>
</g>
<g>
</g>
<g>
</g>
<g>
</g>
<g>
</g>
<path fill="none" stroke="#0070E3" stroke-width="37" stroke-linecap="round" stroke-miterlimit="10" d="M170.64,141.921
	c0,0,77.336-6.461,94.67-60.294"/>
<path fill="none" stroke="#0070E3" stroke-width="32" stroke-linecap="round" stroke-miterlimit="10" d="M194.614,63.52
	c4.855-0.839,43.289-9.228,50.715-37.498"/>
<path fill="#0070E3" d="M323.239,114.41c-1.545,0.791-2.668,1.994-3.064,3.392c0.879,5.599,1.344,11.311,1.344,17.119
	c0,69.587-64.918,125.999-145,125.999c-20.5,0-40-3.713-57.678-10.383c-3.537,0.826-6.412,2.824-7.846,5.402
	c-1.943,10.533-2.977,21.385-2.977,32.48c0,98.307,79.693,178,178,178s178-79.693,178-178
	C464.019,202.881,403.677,133.108,323.239,114.41z M224.902,276.275h-3.278c-3.701,0-6.399,1.092-8.094,3.277
	c-1.115,1.428-1.672,4.861-1.672,10.301v58.6c0,4.594,0.289,7.627,0.869,9.098c0.445,1.115,1.382,2.074,2.81,2.877
	c1.917,1.07,3.946,1.605,6.087,1.605h3.278v2.475h-38.866v-2.475h3.211c3.746,0,6.467-1.092,8.162-3.277
	c1.07-1.428,1.605-4.861,1.605-10.303v-58.6c0-4.592-0.291-7.625-0.87-9.098c-0.446-1.113-1.36-2.072-2.743-2.875
	c-1.963-1.07-4.014-1.605-6.154-1.605h-3.211v-2.477h38.866V276.275z M385.344,356.078c-5.33,4.973-12.187,7.459-20.57,7.459
	c-2.632,0-5.106-0.201-7.425-0.602c-1.383-0.225-4.248-1.037-8.597-2.441c-4.348-1.406-7.103-2.107-8.261-2.107
	c-1.115,0-1.997,0.334-2.643,1.002c-0.647,0.67-1.127,2.053-1.438,4.148h-2.476v-31.105h2.476c1.159,6.512,2.72,11.383,4.683,14.615
	c1.962,3.234,4.961,5.92,8.997,8.061s8.462,3.211,13.278,3.211c5.574,0,9.979-1.471,13.212-4.414s4.851-6.422,4.851-10.436
	c0-2.229-0.614-4.482-1.84-6.756c-1.228-2.275-3.134-4.393-5.72-6.355c-1.739-1.338-6.489-4.182-14.249-8.529
	s-13.278-7.814-16.556-10.402c-3.278-2.586-5.765-5.439-7.459-8.563c-1.695-3.121-2.542-6.555-2.542-10.301
	c0-6.512,2.497-12.119,7.492-16.824c4.994-4.705,11.35-7.057,19.064-7.057c4.816,0,9.923,1.182,15.319,3.545
	c2.497,1.115,4.259,1.672,5.284,1.672c1.16,0,2.107-0.344,2.844-1.037c0.735-0.689,1.326-2.084,1.772-4.18h2.476v31.373h-2.476
	c-0.803-6.021-2.241-10.814-4.314-14.383c-2.074-3.566-5.028-6.398-8.864-8.496c-3.836-2.096-7.805-3.143-11.906-3.143
	c-4.639,0-8.475,1.416-11.506,4.246c-3.033,2.834-4.549,6.055-4.549,9.668c0,2.766,0.958,5.283,2.876,7.559
	c2.765,3.344,9.343,7.805,19.733,13.379c8.473,4.549,14.26,8.039,17.359,10.469c3.1,2.432,5.485,5.297,7.158,8.596
	c1.672,3.301,3.508,6.756,3.508,10.369C394.337,345.186,390.672,351.105,385.344,356.078z M299.727,359.783
	c-6.065,3.746-13.268,5.619-21.607,5.619c-15.029,0-26.668-5.574-34.918-16.725c-6.154-8.295-9.232-18.061-9.232-29.299
	c0-9.053,2.029-17.369,6.088-24.951c4.058-7.582,9.643-13.457,16.757-17.627c7.112-4.17,14.884-6.254,23.313-6.254
	c6.555,0,13.021,1.605,19.398,4.816c1.873,0.98,3.211,1.471,4.014,1.471c1.205,0,2.252-0.424,3.145-1.271
	c1.159-1.203,1.984-2.875,2.475-5.016h2.342l2.074,30.838H311.5c-2.766-9.232-6.713-15.877-11.84-19.936
	c-5.129-4.057-11.283-6.086-18.463-6.086c-6.021,0-11.463,1.527-16.322,4.582c-4.861,3.055-8.687,7.926-11.473,14.615
	c-2.788,6.689-4.182,15.008-4.182,24.951c0,8.207,1.315,15.32,3.947,21.34c2.631,6.021,6.589,10.637,11.874,13.848
	c5.284,3.211,11.315,4.816,18.095,4.816c5.887,0,11.082-1.26,15.586-3.779s9.455-7.525,14.852-15.018l2.073,1.338
	C311.099,350.129,305.791,356.037,299.727,359.783z"/>
<path fill="none" stroke="#0070E3" stroke-width="37" stroke-linecap="round" stroke-linejoin="round" stroke-miterlimit="10" d="
	M139.358,212.719c0,0,52.127,14.643,100.518-23.723"/>
<g>
</g>
<g>
</g>
<path fill="none" stroke="#EEEEEE" stroke-width="37" stroke-linecap="round" stroke-miterlimit="10" d="M-544.982,950.573
	c0,0,77.336-6.461,94.67-60.294"/>
<path fill="none" stroke="#EEEEEE" stroke-width="32" stroke-linecap="round" stroke-miterlimit="10" d="M-521.008,872.172
	c4.855-0.839,43.289-9.229,50.715-37.498"/>
<path fill="#EEEEEE" d="M-392.383,923.063c-1.545,0.79-2.668,1.993-3.064,3.392c0.879,5.599,1.344,11.311,1.344,17.119
	c0,69.587-64.918,125.999-145,125.999c-20.5,0-40-3.713-57.678-10.383c-3.537,0.826-6.412,2.824-7.846,5.402
	c-1.943,10.533-2.977,21.385-2.977,32.48c0,98.307,79.693,178,178,178s178-79.693,178-178
	C-251.604,1011.533-311.945,941.761-392.383,923.063z M-490.72,1084.928h-3.278c-3.701,0-6.399,1.092-8.094,3.277
	c-1.115,1.428-1.672,4.861-1.672,10.301v58.6c0,4.594,0.289,7.627,0.869,9.098c0.445,1.115,1.382,2.074,2.81,2.877
	c1.917,1.07,3.946,1.605,6.087,1.605h3.278v2.475h-38.866v-2.475h3.211c3.746,0,6.467-1.092,8.162-3.277
	c1.07-1.428,1.605-4.861,1.605-10.303v-58.6c0-4.592-0.291-7.625-0.87-9.098c-0.446-1.113-1.36-2.072-2.743-2.875
	c-1.963-1.07-4.014-1.605-6.154-1.605h-3.211v-2.477h38.866V1084.928z M-330.278,1164.73c-5.33,4.973-12.187,7.459-20.57,7.459
	c-2.632,0-5.106-0.201-7.425-0.602c-1.383-0.225-4.248-1.037-8.597-2.441c-4.348-1.406-7.103-2.107-8.261-2.107
	c-1.115,0-1.997,0.334-2.643,1.002c-0.647,0.67-1.127,2.053-1.438,4.148h-2.476v-31.105h2.476c1.159,6.512,2.72,11.383,4.683,14.615
	c1.962,3.234,4.961,5.92,8.997,8.061s8.462,3.211,13.278,3.211c5.574,0,9.979-1.471,13.212-4.414s4.851-6.422,4.851-10.436
	c0-2.229-0.614-4.482-1.84-6.756c-1.228-2.275-3.134-4.393-5.72-6.355c-1.739-1.338-6.489-4.182-14.249-8.529
	s-13.278-7.814-16.556-10.402c-3.278-2.586-5.765-5.439-7.459-8.563c-1.695-3.121-2.542-6.555-2.542-10.301
	c0-6.512,2.497-12.119,7.492-16.824c4.994-4.705,11.35-7.057,19.064-7.057c4.816,0,9.923,1.182,15.319,3.545
	c2.497,1.115,4.259,1.672,5.284,1.672c1.16,0,2.107-0.344,2.844-1.037c0.735-0.689,1.326-2.084,1.772-4.18h2.476v31.373h-2.476
	c-0.803-6.021-2.241-10.814-4.314-14.383c-2.074-3.566-5.028-6.398-8.864-8.496c-3.836-2.096-7.805-3.143-11.906-3.143
	c-4.639,0-8.475,1.416-11.506,4.246c-3.033,2.834-4.549,6.055-4.549,9.668c0,2.766,0.958,5.283,2.876,7.559
	c2.765,3.344,9.343,7.805,19.733,13.379c8.473,4.549,14.26,8.039,17.359,10.469c3.1,2.432,5.485,5.297,7.158,8.596
	c1.672,3.301,3.508,6.756,3.508,10.369C-321.285,1153.838-324.95,1159.758-330.278,1164.73z M-415.896,1168.436
	c-6.065,3.746-13.268,5.619-21.607,5.619c-15.029,0-26.668-5.574-34.918-16.725c-6.154-8.295-9.232-18.061-9.232-29.299
	c0-9.053,2.029-17.369,6.088-24.951c4.058-7.582,9.643-13.457,16.757-17.627c7.112-4.17,14.884-6.254,23.313-6.254
	c6.555,0,13.021,1.605,19.398,4.816c1.873,0.98,3.211,1.471,4.014,1.471c1.205,0,2.252-0.424,3.145-1.271
	c1.159-1.203,1.984-2.875,2.475-5.016h2.342l2.074,30.838h-2.074c-2.766-9.232-6.713-15.877-11.84-19.936
	c-5.129-4.057-11.283-6.086-18.463-6.086c-6.021,0-11.463,1.527-16.322,4.582c-4.861,3.055-8.687,7.926-11.473,14.615
	c-2.788,6.689-4.182,15.008-4.182,24.951c0,8.207,1.315,15.32,3.947,21.34c2.631,6.021,6.589,10.637,11.874,13.848
	c5.284,3.211,11.315,4.816,18.095,4.816c5.887,0,11.082-1.26,15.586-3.779s9.455-7.525,14.852-15.018l2.073,1.338
	C-404.523,1158.781-409.831,1164.689-415.896,1168.436z"/>
<path fill="none" stroke="#EEEEEE" stroke-width="37" stroke-linecap="round" stroke-linejoin="round" stroke-miterlimit="10" d="
	M-576.264,1021.371c0,0,52.127,14.643,100.518-23.723"/>
</svg>
